# xmcd CD database file
#
# Track frame offsets:
#	150
#	12956
#	36372
#	60413
#	84780
#	99112
#	118804
#	144807
#	170092
#	186865
#	207516
#	225194
#	256516
#	266120
#	280543
#
# Disc length: 4153 seconds
#
# Revision: 1
# Processed by: cddbd v1.5.2PL0 Copyright (c) Steve Scherf et al.
# Submitted via: CDex 1.70beta2
#
DISCID=ba10370f
DTITLE=Ceylan Ertem - Soluk
DYEAR=2010
DGENRE=Jazz
TTITLE0=Intro -  Evim Nerde
TTITLE1=İnsandık
TTITLE2=Bırakma
TTITLE3=Gidip dinlenmeliyim
TTITLE4=Mi minör
TTITLE5=Torun
TTITLE6=Fikrimin ince gülü
TTITLE7=Nazım'a
TTITLE8=Kızılcıklar oldu mu
TTITLE9=Sonbahar
TTITLE10=Çok yakın
TTITLE11=Müzikten uzak
TTITLE12=Gönül dağı intro
TTITLE13=Gönül dağı
TTITLE14=Şenay
EXTD=YEAR: 2010
EXTT0=
EXTT1=
EXTT2=
EXTT3=
EXTT4=
EXTT5=
EXTT6=
EXTT7=
EXTT8=
EXTT9=
EXTT10=
EXTT11=
EXTT12=
EXTT13=
EXTT14=
PLAYORDER=
